<mxfile host="app.diagrams.net" modified="2024-02-26T15:54:44.981Z" agent="Mozilla/5.0 (X11; Linux x86_64; rv:123.0) Gecko/20100101 Firefox/123.0" version="23.1.6" etag="QU7KDwoIAxYohe6D1J-_" type="github">
  <diagram name="Page-1" id="4n3GEQyN-IUl6yasdnbb">
    <mxGraphModel>
      <root>
        <mxCell id="0" />
        <mxCell id="1" parent="0" />
      </root>
    </mxGraphModel>
  </diagram>
</mxfile>
